<svg width="232" height="171" viewBox="0 0 232 171" fill="none" xmlns="http://www.w3.org/2000/svg">
<path d="M1.65721 131.943C7.35725 140.81 8.54714 152.031 6.31224 164.893C5.99869 166.698 5.84308 168.15 6.63548 169.383C7.80734 171.206 4.19556 165.759 3.81439 163.482C3.13766 159.441 2.04138 154.616 2.86801 149.912C3.58774 145.816 9.07231 149.704 10.2699 150.153C14.8784 151.881 19.3205 152.872 25.7802 152.422C28.5374 152.23 23.135 150.159 22.7764 150.086C20.2207 149.564 17.6928 148.492 13.9269 149.655C11.388 150.439 16.5325 145.077 16.9787 144.504C17.4317 143.923 22.9415 136.102 23.4336 136.261C24.3037 136.542 24.8699 137.441 26.4429 136.955C28.2488 136.397 29.8842 136.615 31.4122 134.924C33.8004 132.282 35.4959 137.554 35.8413 138.24C36.156 138.865 37.0725 144.364 36.2635 143.571C32.8887 140.263 29.2639 136.899 26.4259 133.217C21.331 126.605 33.3087 126.428 42.2593 123.34C56.881 118.296 48.6321 117.459 47.2453 119.273C45.6471 121.363 43.2038 127.798 45.6852 128.119C48.5734 128.493 61.0622 116.884 62.8402 114.937C65.6335 111.878 65.1911 108.184 65.4627 110.493C65.6928 112.448 65.8478 117.269 68.3432 111.399C68.9716 109.921 71.1324 98.3497 72.3299 97.8037C75.9405 96.1573 80.1961 100.88 81.1694 102.206C82.1573 103.551 80.3884 98.7222 81.0832 96.5726C83.1715 90.1106 92.0073 85.4991 99.5018 80.6813C101.978 79.0894 113.113 71.1557 112.156 71.7709C107.303 74.8907 105.768 80.3375 106.773 82.644C107.667 84.6962 111.219 79.1408 111.524 78.2109C112.582 74.9853 108.899 72.3615 111.817 75.0921C116.933 79.8801 132.09 71.3502 143.124 66.6026C144.883 65.8459 147.908 65.286 147.373 64.0007C146.476 61.8499 145.987 59.45 145.356 57.1518C143.193 49.2642 140.639 40.7509 141.998 31.1685C142.827 25.3234 153.657 32.7128 155.462 33.4165C158.891 34.7532 162.117 36.2321 165.327 37.7633C166.533 38.3388 168.646 40.6529 169.424 39.0509C170.204 37.4456 169.041 35.2799 168.741 34.2756C167.544 30.2715 165.987 26.4831 165.109 22.3022C164.825 20.9489 163.624 10.4926 164.633 11.6621C168.532 16.182 171.719 21.2192 175.864 25.5594C177.437 27.206 178.393 30.514 179.311 25.9723C180.426 20.4616 187.926 27.6494 189.658 28.4575C194.181 30.5682 202.362 11.6504 199.806 9.7373C198.489 8.75093 194.709 14.3479 194.446 14.7345C191.762 18.6847 181.139 33.0505 190.729 30.3981C194.885 29.2484 206.983 23.6415 206.088 19.9212C205.388 17.0123 201.435 16.302 199.578 14.1938C198.647 13.1372 198.949 14.0095 201.947 12.9295C204.032 12.1784 206.259 10.5534 202.955 12.023C199.975 13.3487 198.792 17.9203 199.444 18.9344C199.904 19.6498 205.741 21.7948 206.861 18.6487C208.016 15.4027 207.912 11.3373 205.886 9.70805C204.414 8.52451 204.243 11.2893 204.525 10.0657C206.151 3.01328 214.685 11.6228 215.162 13.1399C215.842 15.3038 215.953 -0.996257 220.4 4.51519C221.706 6.13427 226.871 3.72712 230.043 2.19456" stroke="#508CAF" stroke-width="3" stroke-linecap="round"/>
</svg>
